G75*
%MOIN*%
%OFA0B0*%
%FSLAX25Y25*%
%IPPOS*%
%LPD*%
%AMOC8*
5,1,8,0,0,1.08239X$1,22.5*
%
%ADD10C,0.00000*%
%ADD11R,0.07093X0.07093*%
D10*
X0005593Y0016998D02*
X0005593Y0028809D01*
X0015436Y0028809D01*
X0015436Y0040620D01*
X0023310Y0016998D02*
X0005593Y0016998D01*
X0023310Y0016998D02*
X0023899Y0016233D01*
X0024506Y0015482D01*
X0025131Y0014747D01*
X0025775Y0014027D01*
X0026435Y0013324D01*
X0027113Y0012636D01*
X0027807Y0011966D01*
X0028518Y0011312D01*
X0029245Y0010677D01*
X0029986Y0010059D01*
X0030743Y0009459D01*
X0031514Y0008879D01*
X0032300Y0008317D01*
X0033098Y0007775D01*
X0033910Y0007253D01*
X0034735Y0006751D01*
X0035571Y0006269D01*
X0036419Y0005807D01*
X0037278Y0005367D01*
X0038148Y0004948D01*
X0039027Y0004550D01*
X0039916Y0004174D01*
X0040814Y0003820D01*
X0041721Y0003488D01*
X0042635Y0003178D01*
X0043557Y0002891D01*
X0044485Y0002627D01*
X0045420Y0002385D01*
X0046360Y0002167D01*
X0047306Y0001971D01*
X0048255Y0001799D01*
X0049209Y0001650D01*
X0050166Y0001524D01*
X0051126Y0001422D01*
X0052088Y0001344D01*
X0053052Y0001289D01*
X0054017Y0001258D01*
X0054982Y0001250D01*
X0055948Y0001267D01*
X0056912Y0001306D01*
X0057875Y0001370D01*
X0058837Y0001457D01*
X0059796Y0001567D01*
X0060752Y0001702D01*
X0061704Y0001859D01*
X0062652Y0002040D01*
X0063596Y0002244D01*
X0064534Y0002471D01*
X0065467Y0002721D01*
X0066393Y0002994D01*
X0067312Y0003289D01*
X0068223Y0003607D01*
X0069127Y0003947D01*
X0070021Y0004309D01*
X0070907Y0004693D01*
X0071783Y0005099D01*
X0072649Y0005525D01*
X0073504Y0005974D01*
X0074348Y0006442D01*
X0075180Y0006932D01*
X0076000Y0007441D01*
X0076807Y0007971D01*
X0077601Y0008520D01*
X0078381Y0009089D01*
X0079147Y0009676D01*
X0079898Y0010282D01*
X0080635Y0010907D01*
X0081355Y0011549D01*
X0082060Y0012209D01*
X0082749Y0012885D01*
X0083420Y0013579D01*
X0084074Y0014288D01*
X0084711Y0015014D01*
X0085330Y0015755D01*
X0085931Y0016511D01*
X0086512Y0017281D01*
X0087075Y0018065D01*
X0087618Y0018863D01*
X0088142Y0019674D01*
X0088645Y0020498D01*
X0089129Y0021334D01*
X0089591Y0022181D01*
X0090033Y0023039D01*
X0090453Y0023908D01*
X0090852Y0024787D01*
X0091230Y0025676D01*
X0091585Y0026574D01*
X0091918Y0027480D01*
X0092229Y0028393D01*
X0092518Y0029315D01*
X0092784Y0030243D01*
X0093027Y0031177D01*
X0093247Y0032117D01*
X0093444Y0033062D01*
X0093617Y0034011D01*
X0093768Y0034965D01*
X0093895Y0035922D01*
X0093998Y0036882D01*
X0094078Y0037844D01*
X0094134Y0038807D01*
X0094167Y0039772D01*
X0094176Y0040738D01*
X0094161Y0041703D01*
X0094123Y0042667D01*
X0094061Y0043631D01*
X0093975Y0044592D01*
X0093866Y0045551D01*
X0093733Y0046508D01*
X0093577Y0047460D01*
X0093398Y0048409D01*
X0093195Y0049353D01*
X0092970Y0050291D01*
X0092721Y0051224D01*
X0092450Y0052150D01*
X0092156Y0053070D01*
X0091839Y0053982D01*
X0091500Y0054886D01*
X0091140Y0055781D01*
X0090757Y0056667D01*
X0090353Y0057544D01*
X0089927Y0058411D01*
X0089480Y0059266D01*
X0089013Y0060111D01*
X0088525Y0060944D01*
X0088016Y0061764D01*
X0087488Y0062572D01*
X0086940Y0063367D01*
X0086372Y0064148D01*
X0085786Y0064915D01*
X0085181Y0065667D01*
X0084558Y0066404D01*
X0083917Y0067126D01*
X0083258Y0067832D01*
X0082582Y0068521D01*
X0081890Y0069194D01*
X0081181Y0069849D01*
X0080457Y0070487D01*
X0079717Y0071107D01*
X0078962Y0071709D01*
X0078192Y0072291D01*
X0077409Y0072855D01*
X0076612Y0073400D01*
X0075801Y0073925D01*
X0074978Y0074429D01*
X0074143Y0074914D01*
X0073297Y0075378D01*
X0072439Y0075820D01*
X0071571Y0076242D01*
X0070692Y0076643D01*
X0069804Y0077021D01*
X0068907Y0077378D01*
X0068002Y0077713D01*
X0067088Y0078025D01*
X0066168Y0078315D01*
X0065240Y0078582D01*
X0064306Y0078827D01*
X0063367Y0079048D01*
X0062422Y0079246D01*
X0061473Y0079421D01*
X0060519Y0079573D01*
X0059562Y0079702D01*
X0058603Y0079806D01*
X0057641Y0079888D01*
X0056677Y0079946D01*
X0055713Y0079980D01*
X0054747Y0079990D01*
X0053782Y0079977D01*
X0052817Y0079940D01*
X0051854Y0079879D01*
X0050892Y0079795D01*
X0049933Y0079687D01*
X0048977Y0079556D01*
X0048024Y0079401D01*
X0047075Y0079223D01*
X0046131Y0079022D01*
X0045192Y0078798D01*
X0044259Y0078551D01*
X0043332Y0078281D01*
X0042412Y0077988D01*
X0041499Y0077673D01*
X0040595Y0077336D01*
X0039699Y0076976D01*
X0038812Y0076595D01*
X0037935Y0076192D01*
X0037068Y0075768D01*
X0036211Y0075322D01*
X0035366Y0074856D01*
X0034533Y0074369D01*
X0033711Y0073862D01*
X0032903Y0073335D01*
X0032107Y0072788D01*
X0031325Y0072221D01*
X0030558Y0071636D01*
X0029804Y0071032D01*
X0029066Y0070410D01*
X0028344Y0069770D01*
X0027637Y0069113D01*
X0026946Y0068438D01*
X0026273Y0067747D01*
X0025616Y0067039D01*
X0024977Y0066315D01*
X0024356Y0065576D01*
X0023754Y0064822D01*
X0023170Y0064053D01*
X0022604Y0063271D01*
X0022059Y0062474D01*
X0021533Y0061665D01*
X0021027Y0060843D01*
X0020541Y0060009D01*
X0020076Y0059163D01*
X0019632Y0058306D01*
X0019209Y0057438D01*
X0018807Y0056560D01*
X0018427Y0055673D01*
X0018069Y0054776D01*
X0017733Y0053871D01*
X0017419Y0052958D01*
X0017128Y0052038D01*
X0016859Y0051111D01*
X0016614Y0050177D01*
X0016391Y0049238D01*
X0016191Y0048294D01*
X0016015Y0047344D01*
X0015861Y0046391D01*
X0015732Y0045435D01*
X0015625Y0044475D01*
X0015542Y0043513D01*
X0015483Y0042550D01*
X0015448Y0041585D01*
X0015436Y0040620D01*
D11*
X0011499Y0022904D03*
M02*
