G75*
%MOIN*%
%OFA0B0*%
%FSLAX25Y25*%
%IPPOS*%
%LPD*%
%AMOC8*
5,1,8,0,0,1.08239X$1,22.5*
%
%ADD10C,0.00000*%
%ADD11C,0.00500*%
%ADD12C,0.00600*%
D10*
X0005593Y0016998D02*
X0005593Y0028809D01*
X0015436Y0028809D01*
X0015436Y0040620D01*
X0023310Y0016998D02*
X0005593Y0016998D01*
X0023310Y0016998D02*
X0023899Y0016233D01*
X0024506Y0015482D01*
X0025131Y0014747D01*
X0025775Y0014027D01*
X0026435Y0013324D01*
X0027113Y0012636D01*
X0027807Y0011966D01*
X0028518Y0011312D01*
X0029245Y0010677D01*
X0029986Y0010059D01*
X0030743Y0009459D01*
X0031514Y0008879D01*
X0032300Y0008317D01*
X0033098Y0007775D01*
X0033910Y0007253D01*
X0034735Y0006751D01*
X0035571Y0006269D01*
X0036419Y0005807D01*
X0037278Y0005367D01*
X0038148Y0004948D01*
X0039027Y0004550D01*
X0039916Y0004174D01*
X0040814Y0003820D01*
X0041721Y0003488D01*
X0042635Y0003178D01*
X0043557Y0002891D01*
X0044485Y0002627D01*
X0045420Y0002385D01*
X0046360Y0002167D01*
X0047306Y0001971D01*
X0048255Y0001799D01*
X0049209Y0001650D01*
X0050166Y0001524D01*
X0051126Y0001422D01*
X0052088Y0001344D01*
X0053052Y0001289D01*
X0054017Y0001258D01*
X0054982Y0001250D01*
X0055948Y0001267D01*
X0056912Y0001306D01*
X0057875Y0001370D01*
X0058837Y0001457D01*
X0059796Y0001567D01*
X0060752Y0001702D01*
X0061704Y0001859D01*
X0062652Y0002040D01*
X0063596Y0002244D01*
X0064534Y0002471D01*
X0065467Y0002721D01*
X0066393Y0002994D01*
X0067312Y0003289D01*
X0068223Y0003607D01*
X0069127Y0003947D01*
X0070021Y0004309D01*
X0070907Y0004693D01*
X0071783Y0005099D01*
X0072649Y0005525D01*
X0073504Y0005974D01*
X0074348Y0006442D01*
X0075180Y0006932D01*
X0076000Y0007441D01*
X0076807Y0007971D01*
X0077601Y0008520D01*
X0078381Y0009089D01*
X0079147Y0009676D01*
X0079898Y0010282D01*
X0080635Y0010907D01*
X0081355Y0011549D01*
X0082060Y0012209D01*
X0082749Y0012885D01*
X0083420Y0013579D01*
X0084074Y0014288D01*
X0084711Y0015014D01*
X0085330Y0015755D01*
X0085931Y0016511D01*
X0086512Y0017281D01*
X0087075Y0018065D01*
X0087618Y0018863D01*
X0088142Y0019674D01*
X0088645Y0020498D01*
X0089129Y0021334D01*
X0089591Y0022181D01*
X0090033Y0023039D01*
X0090453Y0023908D01*
X0090852Y0024787D01*
X0091230Y0025676D01*
X0091585Y0026574D01*
X0091918Y0027480D01*
X0092229Y0028393D01*
X0092518Y0029315D01*
X0092784Y0030243D01*
X0093027Y0031177D01*
X0093247Y0032117D01*
X0093444Y0033062D01*
X0093617Y0034011D01*
X0093768Y0034965D01*
X0093895Y0035922D01*
X0093998Y0036882D01*
X0094078Y0037844D01*
X0094134Y0038807D01*
X0094167Y0039772D01*
X0094176Y0040738D01*
X0094161Y0041703D01*
X0094123Y0042667D01*
X0094061Y0043631D01*
X0093975Y0044592D01*
X0093866Y0045551D01*
X0093733Y0046508D01*
X0093577Y0047460D01*
X0093398Y0048409D01*
X0093195Y0049353D01*
X0092970Y0050291D01*
X0092721Y0051224D01*
X0092450Y0052150D01*
X0092156Y0053070D01*
X0091839Y0053982D01*
X0091500Y0054886D01*
X0091140Y0055781D01*
X0090757Y0056667D01*
X0090353Y0057544D01*
X0089927Y0058411D01*
X0089480Y0059266D01*
X0089013Y0060111D01*
X0088525Y0060944D01*
X0088016Y0061764D01*
X0087488Y0062572D01*
X0086940Y0063367D01*
X0086372Y0064148D01*
X0085786Y0064915D01*
X0085181Y0065667D01*
X0084558Y0066404D01*
X0083917Y0067126D01*
X0083258Y0067832D01*
X0082582Y0068521D01*
X0081890Y0069194D01*
X0081181Y0069849D01*
X0080457Y0070487D01*
X0079717Y0071107D01*
X0078962Y0071709D01*
X0078192Y0072291D01*
X0077409Y0072855D01*
X0076612Y0073400D01*
X0075801Y0073925D01*
X0074978Y0074429D01*
X0074143Y0074914D01*
X0073297Y0075378D01*
X0072439Y0075820D01*
X0071571Y0076242D01*
X0070692Y0076643D01*
X0069804Y0077021D01*
X0068907Y0077378D01*
X0068002Y0077713D01*
X0067088Y0078025D01*
X0066168Y0078315D01*
X0065240Y0078582D01*
X0064306Y0078827D01*
X0063367Y0079048D01*
X0062422Y0079246D01*
X0061473Y0079421D01*
X0060519Y0079573D01*
X0059562Y0079702D01*
X0058603Y0079806D01*
X0057641Y0079888D01*
X0056677Y0079946D01*
X0055713Y0079980D01*
X0054747Y0079990D01*
X0053782Y0079977D01*
X0052817Y0079940D01*
X0051854Y0079879D01*
X0050892Y0079795D01*
X0049933Y0079687D01*
X0048977Y0079556D01*
X0048024Y0079401D01*
X0047075Y0079223D01*
X0046131Y0079022D01*
X0045192Y0078798D01*
X0044259Y0078551D01*
X0043332Y0078281D01*
X0042412Y0077988D01*
X0041499Y0077673D01*
X0040595Y0077336D01*
X0039699Y0076976D01*
X0038812Y0076595D01*
X0037935Y0076192D01*
X0037068Y0075768D01*
X0036211Y0075322D01*
X0035366Y0074856D01*
X0034533Y0074369D01*
X0033711Y0073862D01*
X0032903Y0073335D01*
X0032107Y0072788D01*
X0031325Y0072221D01*
X0030558Y0071636D01*
X0029804Y0071032D01*
X0029066Y0070410D01*
X0028344Y0069770D01*
X0027637Y0069113D01*
X0026946Y0068438D01*
X0026273Y0067747D01*
X0025616Y0067039D01*
X0024977Y0066315D01*
X0024356Y0065576D01*
X0023754Y0064822D01*
X0023170Y0064053D01*
X0022604Y0063271D01*
X0022059Y0062474D01*
X0021533Y0061665D01*
X0021027Y0060843D01*
X0020541Y0060009D01*
X0020076Y0059163D01*
X0019632Y0058306D01*
X0019209Y0057438D01*
X0018807Y0056560D01*
X0018427Y0055673D01*
X0018069Y0054776D01*
X0017733Y0053871D01*
X0017419Y0052958D01*
X0017128Y0052038D01*
X0016859Y0051111D01*
X0016614Y0050177D01*
X0016391Y0049238D01*
X0016191Y0048294D01*
X0016015Y0047344D01*
X0015861Y0046391D01*
X0015732Y0045435D01*
X0015625Y0044475D01*
X0015542Y0043513D01*
X0015483Y0042550D01*
X0015448Y0041585D01*
X0015436Y0040620D01*
D11*
X0015448Y0041586D01*
X0015483Y0042552D01*
X0015543Y0043516D01*
X0015626Y0044479D01*
X0015732Y0045439D01*
X0015862Y0046397D01*
X0016016Y0047351D01*
X0016192Y0048301D01*
X0016393Y0049246D01*
X0016616Y0050186D01*
X0016862Y0051120D01*
X0017131Y0052049D01*
X0017423Y0052970D01*
X0017737Y0053883D01*
X0018074Y0054789D01*
X0018433Y0055686D01*
X0018814Y0056574D01*
X0019216Y0057453D01*
X0019640Y0058321D01*
X0020085Y0059179D01*
X0020551Y0060025D01*
X0021037Y0060860D01*
X0021544Y0061683D01*
X0022071Y0062493D01*
X0022618Y0063290D01*
X0023184Y0064073D01*
X0023769Y0064842D01*
X0024373Y0065596D01*
X0024995Y0066335D01*
X0025635Y0067059D01*
X0026292Y0067767D01*
X0026967Y0068459D01*
X0027659Y0069134D01*
X0028367Y0069791D01*
X0029091Y0070431D01*
X0029830Y0071053D01*
X0030584Y0071657D01*
X0031353Y0072242D01*
X0032136Y0072808D01*
X0032933Y0073355D01*
X0033743Y0073882D01*
X0034566Y0074389D01*
X0035401Y0074875D01*
X0036247Y0075341D01*
X0037105Y0075786D01*
X0037973Y0076210D01*
X0038852Y0076612D01*
X0039740Y0076993D01*
X0040637Y0077352D01*
X0041543Y0077689D01*
X0042456Y0078003D01*
X0043377Y0078295D01*
X0044306Y0078564D01*
X0045240Y0078810D01*
X0046180Y0079033D01*
X0047125Y0079234D01*
X0048075Y0079410D01*
X0049029Y0079564D01*
X0049987Y0079694D01*
X0050947Y0079800D01*
X0051910Y0079883D01*
X0052874Y0079943D01*
X0053840Y0079978D01*
X0054806Y0079990D01*
X0055772Y0079978D01*
X0056738Y0079943D01*
X0057702Y0079883D01*
X0058665Y0079800D01*
X0059625Y0079694D01*
X0060583Y0079564D01*
X0061537Y0079410D01*
X0062487Y0079234D01*
X0063432Y0079033D01*
X0064372Y0078810D01*
X0065306Y0078564D01*
X0066235Y0078295D01*
X0067156Y0078003D01*
X0068069Y0077689D01*
X0068975Y0077352D01*
X0069872Y0076993D01*
X0070760Y0076612D01*
X0071639Y0076210D01*
X0072507Y0075786D01*
X0073365Y0075341D01*
X0074211Y0074875D01*
X0075046Y0074389D01*
X0075869Y0073882D01*
X0076679Y0073355D01*
X0077476Y0072808D01*
X0078259Y0072242D01*
X0079028Y0071657D01*
X0079782Y0071053D01*
X0080521Y0070431D01*
X0081245Y0069791D01*
X0081953Y0069134D01*
X0082645Y0068459D01*
X0083320Y0067767D01*
X0083977Y0067059D01*
X0084617Y0066335D01*
X0085239Y0065596D01*
X0085843Y0064842D01*
X0086428Y0064073D01*
X0086994Y0063290D01*
X0087541Y0062493D01*
X0088068Y0061683D01*
X0088575Y0060860D01*
X0089061Y0060025D01*
X0089527Y0059179D01*
X0089972Y0058321D01*
X0090396Y0057453D01*
X0090798Y0056574D01*
X0091179Y0055686D01*
X0091538Y0054789D01*
X0091875Y0053883D01*
X0092189Y0052970D01*
X0092481Y0052049D01*
X0092750Y0051120D01*
X0092996Y0050186D01*
X0093219Y0049246D01*
X0093420Y0048301D01*
X0093596Y0047351D01*
X0093750Y0046397D01*
X0093880Y0045439D01*
X0093986Y0044479D01*
X0094069Y0043516D01*
X0094129Y0042552D01*
X0094164Y0041586D01*
X0094176Y0040620D01*
X0094164Y0039654D01*
X0094129Y0038688D01*
X0094069Y0037724D01*
X0093986Y0036761D01*
X0093880Y0035801D01*
X0093750Y0034843D01*
X0093596Y0033889D01*
X0093420Y0032939D01*
X0093219Y0031994D01*
X0092996Y0031054D01*
X0092750Y0030120D01*
X0092481Y0029191D01*
X0092189Y0028270D01*
X0091875Y0027357D01*
X0091538Y0026451D01*
X0091179Y0025554D01*
X0090798Y0024666D01*
X0090396Y0023787D01*
X0089972Y0022919D01*
X0089527Y0022061D01*
X0089061Y0021215D01*
X0088575Y0020380D01*
X0088068Y0019557D01*
X0087541Y0018747D01*
X0086994Y0017950D01*
X0086428Y0017167D01*
X0085843Y0016398D01*
X0085239Y0015644D01*
X0084617Y0014905D01*
X0083977Y0014181D01*
X0083320Y0013473D01*
X0082645Y0012781D01*
X0081953Y0012106D01*
X0081245Y0011449D01*
X0080521Y0010809D01*
X0079782Y0010187D01*
X0079028Y0009583D01*
X0078259Y0008998D01*
X0077476Y0008432D01*
X0076679Y0007885D01*
X0075869Y0007358D01*
X0075046Y0006851D01*
X0074211Y0006365D01*
X0073365Y0005899D01*
X0072507Y0005454D01*
X0071639Y0005030D01*
X0070760Y0004628D01*
X0069872Y0004247D01*
X0068975Y0003888D01*
X0068069Y0003551D01*
X0067156Y0003237D01*
X0066235Y0002945D01*
X0065306Y0002676D01*
X0064372Y0002430D01*
X0063432Y0002207D01*
X0062487Y0002006D01*
X0061537Y0001830D01*
X0060583Y0001676D01*
X0059625Y0001546D01*
X0058665Y0001440D01*
X0057702Y0001357D01*
X0056738Y0001297D01*
X0055772Y0001262D01*
X0054806Y0001250D01*
X0053840Y0001262D01*
X0052874Y0001297D01*
X0051910Y0001357D01*
X0050947Y0001440D01*
X0049987Y0001546D01*
X0049029Y0001676D01*
X0048075Y0001830D01*
X0047125Y0002006D01*
X0046180Y0002207D01*
X0045240Y0002430D01*
X0044306Y0002676D01*
X0043377Y0002945D01*
X0042456Y0003237D01*
X0041543Y0003551D01*
X0040637Y0003888D01*
X0039740Y0004247D01*
X0038852Y0004628D01*
X0037973Y0005030D01*
X0037105Y0005454D01*
X0036247Y0005899D01*
X0035401Y0006365D01*
X0034566Y0006851D01*
X0033743Y0007358D01*
X0032933Y0007885D01*
X0032136Y0008432D01*
X0031353Y0008998D01*
X0030584Y0009583D01*
X0029830Y0010187D01*
X0029091Y0010809D01*
X0028367Y0011449D01*
X0027659Y0012106D01*
X0026967Y0012781D01*
X0026292Y0013473D01*
X0025635Y0014181D01*
X0024995Y0014905D01*
X0024373Y0015644D01*
X0023769Y0016398D01*
X0023184Y0017167D01*
X0022618Y0017950D01*
X0022071Y0018747D01*
X0021544Y0019557D01*
X0021037Y0020380D01*
X0020551Y0021215D01*
X0020085Y0022061D01*
X0019640Y0022919D01*
X0019216Y0023787D01*
X0018814Y0024666D01*
X0018433Y0025554D01*
X0018074Y0026451D01*
X0017737Y0027357D01*
X0017423Y0028270D01*
X0017131Y0029191D01*
X0016862Y0030120D01*
X0016616Y0031054D01*
X0016393Y0031994D01*
X0016192Y0032939D01*
X0016016Y0033889D01*
X0015862Y0034843D01*
X0015732Y0035801D01*
X0015626Y0036761D01*
X0015543Y0037724D01*
X0015483Y0038688D01*
X0015448Y0039654D01*
X0015436Y0040620D01*
D12*
X0016499Y0027904D02*
X0006499Y0027904D01*
X0006499Y0017904D01*
X0016499Y0017904D01*
X0016499Y0027904D01*
M02*
