G75*
%MOIN*%
%OFA0B0*%
%FSLAX25Y25*%
%IPPOS*%
%LPD*%
%AMOC8*
5,1,8,0,0,1.08239X$1,22.5*
%
%ADD10C,0.00000*%
%ADD11C,0.00800*%
%ADD12C,0.00600*%
%ADD13R,0.02559X0.01969*%
%ADD14C,0.00400*%
%ADD15C,0.02200*%
%ADD16C,0.00100*%
%ADD17R,0.03740X0.01969*%
%ADD18R,0.01969X0.03740*%
D10*
X0006518Y0016998D02*
X0006518Y0064242D01*
X0069510Y0064242D01*
X0070098Y0065006D01*
X0070704Y0065756D01*
X0071329Y0066490D01*
X0071971Y0067209D01*
X0072631Y0067912D01*
X0073308Y0068599D01*
X0074002Y0069269D01*
X0074711Y0069922D01*
X0075437Y0070557D01*
X0076177Y0071174D01*
X0076933Y0071773D01*
X0077703Y0072353D01*
X0078487Y0072914D01*
X0079285Y0073456D01*
X0080096Y0073978D01*
X0080919Y0074480D01*
X0081754Y0074962D01*
X0082601Y0075423D01*
X0083458Y0075863D01*
X0084327Y0076282D01*
X0085205Y0076680D01*
X0086093Y0077056D01*
X0086990Y0077410D01*
X0087895Y0077743D01*
X0088808Y0078053D01*
X0089728Y0078340D01*
X0090655Y0078605D01*
X0091589Y0078847D01*
X0092528Y0079066D01*
X0093472Y0079262D01*
X0094420Y0079435D01*
X0095373Y0079585D01*
X0096329Y0079711D01*
X0097287Y0079814D01*
X0098248Y0079893D01*
X0099211Y0079949D01*
X0100174Y0079981D01*
X0101139Y0079990D01*
X0102103Y0079975D01*
X0103066Y0079936D01*
X0104028Y0079874D01*
X0104989Y0079788D01*
X0105947Y0079679D01*
X0106902Y0079546D01*
X0107853Y0079390D01*
X0108800Y0079211D01*
X0109743Y0079008D01*
X0110681Y0078783D01*
X0111612Y0078534D01*
X0112538Y0078263D01*
X0113456Y0077970D01*
X0114367Y0077654D01*
X0115270Y0077315D01*
X0116164Y0076955D01*
X0117049Y0076573D01*
X0117925Y0076169D01*
X0118790Y0075744D01*
X0119645Y0075298D01*
X0120489Y0074831D01*
X0121321Y0074344D01*
X0122141Y0073836D01*
X0122948Y0073309D01*
X0123742Y0072762D01*
X0124522Y0072195D01*
X0125288Y0071610D01*
X0126040Y0071006D01*
X0126776Y0070384D01*
X0127497Y0069744D01*
X0128203Y0069086D01*
X0128892Y0068412D01*
X0129564Y0067721D01*
X0130219Y0067013D01*
X0130857Y0066290D01*
X0131476Y0065551D01*
X0132078Y0064798D01*
X0132660Y0064029D01*
X0133224Y0063247D01*
X0133769Y0062451D01*
X0134293Y0061643D01*
X0134798Y0060821D01*
X0135283Y0059988D01*
X0135747Y0059142D01*
X0136190Y0058286D01*
X0136612Y0057419D01*
X0137013Y0056542D01*
X0137392Y0055656D01*
X0137749Y0054760D01*
X0138084Y0053856D01*
X0138397Y0052944D01*
X0138688Y0052025D01*
X0138956Y0051099D01*
X0139201Y0050166D01*
X0139423Y0049228D01*
X0139623Y0048284D01*
X0139799Y0047336D01*
X0139952Y0046384D01*
X0140081Y0045429D01*
X0140187Y0044471D01*
X0140270Y0043510D01*
X0140329Y0042548D01*
X0140364Y0041584D01*
X0140376Y0040620D01*
X0140364Y0039656D01*
X0140329Y0038692D01*
X0140270Y0037730D01*
X0140187Y0036769D01*
X0140081Y0035811D01*
X0139952Y0034856D01*
X0139799Y0033904D01*
X0139623Y0032956D01*
X0139423Y0032012D01*
X0139201Y0031074D01*
X0138956Y0030141D01*
X0138688Y0029215D01*
X0138397Y0028296D01*
X0138084Y0027384D01*
X0137749Y0026480D01*
X0137392Y0025584D01*
X0137013Y0024698D01*
X0136612Y0023821D01*
X0136190Y0022954D01*
X0135747Y0022098D01*
X0135283Y0021252D01*
X0134798Y0020419D01*
X0134293Y0019597D01*
X0133769Y0018789D01*
X0133224Y0017993D01*
X0132660Y0017211D01*
X0132078Y0016442D01*
X0131476Y0015689D01*
X0130857Y0014950D01*
X0130219Y0014227D01*
X0129564Y0013519D01*
X0128892Y0012828D01*
X0128203Y0012154D01*
X0127497Y0011496D01*
X0126776Y0010856D01*
X0126040Y0010234D01*
X0125288Y0009630D01*
X0124522Y0009045D01*
X0123742Y0008478D01*
X0122948Y0007931D01*
X0122141Y0007404D01*
X0121321Y0006896D01*
X0120489Y0006409D01*
X0119645Y0005942D01*
X0118790Y0005496D01*
X0117925Y0005071D01*
X0117049Y0004667D01*
X0116164Y0004285D01*
X0115270Y0003925D01*
X0114367Y0003586D01*
X0113456Y0003270D01*
X0112538Y0002977D01*
X0111612Y0002706D01*
X0110681Y0002457D01*
X0109743Y0002232D01*
X0108800Y0002029D01*
X0107853Y0001850D01*
X0106902Y0001694D01*
X0105947Y0001561D01*
X0104989Y0001452D01*
X0104028Y0001366D01*
X0103066Y0001304D01*
X0102103Y0001265D01*
X0101139Y0001250D01*
X0100174Y0001259D01*
X0099211Y0001291D01*
X0098248Y0001347D01*
X0097287Y0001426D01*
X0096329Y0001529D01*
X0095373Y0001655D01*
X0094420Y0001805D01*
X0093472Y0001978D01*
X0092528Y0002174D01*
X0091589Y0002393D01*
X0090655Y0002635D01*
X0089728Y0002900D01*
X0088808Y0003187D01*
X0087895Y0003497D01*
X0086990Y0003830D01*
X0086093Y0004184D01*
X0085205Y0004560D01*
X0084327Y0004958D01*
X0083458Y0005377D01*
X0082601Y0005817D01*
X0081754Y0006278D01*
X0080919Y0006760D01*
X0080096Y0007262D01*
X0079285Y0007784D01*
X0078487Y0008326D01*
X0077703Y0008887D01*
X0076933Y0009467D01*
X0076177Y0010066D01*
X0075437Y0010683D01*
X0074711Y0011318D01*
X0074002Y0011971D01*
X0073308Y0012641D01*
X0072631Y0013328D01*
X0071971Y0014031D01*
X0071329Y0014750D01*
X0070704Y0015484D01*
X0070098Y0016234D01*
X0069510Y0016998D01*
X0006518Y0016998D01*
X0022856Y0031959D02*
X0022858Y0032043D01*
X0022864Y0032126D01*
X0022874Y0032209D01*
X0022888Y0032292D01*
X0022905Y0032374D01*
X0022927Y0032455D01*
X0022952Y0032534D01*
X0022981Y0032613D01*
X0023014Y0032690D01*
X0023050Y0032765D01*
X0023090Y0032839D01*
X0023133Y0032911D01*
X0023180Y0032980D01*
X0023230Y0033047D01*
X0023283Y0033112D01*
X0023339Y0033174D01*
X0023397Y0033234D01*
X0023459Y0033291D01*
X0023523Y0033344D01*
X0023590Y0033395D01*
X0023659Y0033442D01*
X0023730Y0033487D01*
X0023803Y0033527D01*
X0023878Y0033564D01*
X0023955Y0033598D01*
X0024033Y0033628D01*
X0024112Y0033654D01*
X0024193Y0033677D01*
X0024275Y0033695D01*
X0024357Y0033710D01*
X0024440Y0033721D01*
X0024523Y0033728D01*
X0024607Y0033731D01*
X0024691Y0033730D01*
X0024774Y0033725D01*
X0024858Y0033716D01*
X0024940Y0033703D01*
X0025022Y0033687D01*
X0025103Y0033666D01*
X0025184Y0033642D01*
X0025262Y0033614D01*
X0025340Y0033582D01*
X0025416Y0033546D01*
X0025490Y0033507D01*
X0025562Y0033465D01*
X0025632Y0033419D01*
X0025700Y0033370D01*
X0025765Y0033318D01*
X0025828Y0033263D01*
X0025888Y0033205D01*
X0025946Y0033144D01*
X0026000Y0033080D01*
X0026052Y0033014D01*
X0026100Y0032946D01*
X0026145Y0032875D01*
X0026186Y0032802D01*
X0026225Y0032728D01*
X0026259Y0032652D01*
X0026290Y0032574D01*
X0026317Y0032495D01*
X0026341Y0032414D01*
X0026360Y0032333D01*
X0026376Y0032251D01*
X0026388Y0032168D01*
X0026396Y0032084D01*
X0026400Y0032001D01*
X0026400Y0031917D01*
X0026396Y0031834D01*
X0026388Y0031750D01*
X0026376Y0031667D01*
X0026360Y0031585D01*
X0026341Y0031504D01*
X0026317Y0031423D01*
X0026290Y0031344D01*
X0026259Y0031266D01*
X0026225Y0031190D01*
X0026186Y0031116D01*
X0026145Y0031043D01*
X0026100Y0030972D01*
X0026052Y0030904D01*
X0026000Y0030838D01*
X0025946Y0030774D01*
X0025888Y0030713D01*
X0025828Y0030655D01*
X0025765Y0030600D01*
X0025700Y0030548D01*
X0025632Y0030499D01*
X0025562Y0030453D01*
X0025490Y0030411D01*
X0025416Y0030372D01*
X0025340Y0030336D01*
X0025262Y0030304D01*
X0025184Y0030276D01*
X0025103Y0030252D01*
X0025022Y0030231D01*
X0024940Y0030215D01*
X0024858Y0030202D01*
X0024774Y0030193D01*
X0024691Y0030188D01*
X0024607Y0030187D01*
X0024523Y0030190D01*
X0024440Y0030197D01*
X0024357Y0030208D01*
X0024275Y0030223D01*
X0024193Y0030241D01*
X0024112Y0030264D01*
X0024033Y0030290D01*
X0023955Y0030320D01*
X0023878Y0030354D01*
X0023803Y0030391D01*
X0023730Y0030431D01*
X0023659Y0030476D01*
X0023590Y0030523D01*
X0023523Y0030574D01*
X0023459Y0030627D01*
X0023397Y0030684D01*
X0023339Y0030744D01*
X0023283Y0030806D01*
X0023230Y0030871D01*
X0023180Y0030938D01*
X0023133Y0031007D01*
X0023090Y0031079D01*
X0023050Y0031153D01*
X0023014Y0031228D01*
X0022981Y0031305D01*
X0022952Y0031384D01*
X0022927Y0031463D01*
X0022905Y0031544D01*
X0022888Y0031626D01*
X0022874Y0031709D01*
X0022864Y0031792D01*
X0022858Y0031875D01*
X0022856Y0031959D01*
X0022856Y0049281D02*
X0022858Y0049365D01*
X0022864Y0049448D01*
X0022874Y0049531D01*
X0022888Y0049614D01*
X0022905Y0049696D01*
X0022927Y0049777D01*
X0022952Y0049856D01*
X0022981Y0049935D01*
X0023014Y0050012D01*
X0023050Y0050087D01*
X0023090Y0050161D01*
X0023133Y0050233D01*
X0023180Y0050302D01*
X0023230Y0050369D01*
X0023283Y0050434D01*
X0023339Y0050496D01*
X0023397Y0050556D01*
X0023459Y0050613D01*
X0023523Y0050666D01*
X0023590Y0050717D01*
X0023659Y0050764D01*
X0023730Y0050809D01*
X0023803Y0050849D01*
X0023878Y0050886D01*
X0023955Y0050920D01*
X0024033Y0050950D01*
X0024112Y0050976D01*
X0024193Y0050999D01*
X0024275Y0051017D01*
X0024357Y0051032D01*
X0024440Y0051043D01*
X0024523Y0051050D01*
X0024607Y0051053D01*
X0024691Y0051052D01*
X0024774Y0051047D01*
X0024858Y0051038D01*
X0024940Y0051025D01*
X0025022Y0051009D01*
X0025103Y0050988D01*
X0025184Y0050964D01*
X0025262Y0050936D01*
X0025340Y0050904D01*
X0025416Y0050868D01*
X0025490Y0050829D01*
X0025562Y0050787D01*
X0025632Y0050741D01*
X0025700Y0050692D01*
X0025765Y0050640D01*
X0025828Y0050585D01*
X0025888Y0050527D01*
X0025946Y0050466D01*
X0026000Y0050402D01*
X0026052Y0050336D01*
X0026100Y0050268D01*
X0026145Y0050197D01*
X0026186Y0050124D01*
X0026225Y0050050D01*
X0026259Y0049974D01*
X0026290Y0049896D01*
X0026317Y0049817D01*
X0026341Y0049736D01*
X0026360Y0049655D01*
X0026376Y0049573D01*
X0026388Y0049490D01*
X0026396Y0049406D01*
X0026400Y0049323D01*
X0026400Y0049239D01*
X0026396Y0049156D01*
X0026388Y0049072D01*
X0026376Y0048989D01*
X0026360Y0048907D01*
X0026341Y0048826D01*
X0026317Y0048745D01*
X0026290Y0048666D01*
X0026259Y0048588D01*
X0026225Y0048512D01*
X0026186Y0048438D01*
X0026145Y0048365D01*
X0026100Y0048294D01*
X0026052Y0048226D01*
X0026000Y0048160D01*
X0025946Y0048096D01*
X0025888Y0048035D01*
X0025828Y0047977D01*
X0025765Y0047922D01*
X0025700Y0047870D01*
X0025632Y0047821D01*
X0025562Y0047775D01*
X0025490Y0047733D01*
X0025416Y0047694D01*
X0025340Y0047658D01*
X0025262Y0047626D01*
X0025184Y0047598D01*
X0025103Y0047574D01*
X0025022Y0047553D01*
X0024940Y0047537D01*
X0024858Y0047524D01*
X0024774Y0047515D01*
X0024691Y0047510D01*
X0024607Y0047509D01*
X0024523Y0047512D01*
X0024440Y0047519D01*
X0024357Y0047530D01*
X0024275Y0047545D01*
X0024193Y0047563D01*
X0024112Y0047586D01*
X0024033Y0047612D01*
X0023955Y0047642D01*
X0023878Y0047676D01*
X0023803Y0047713D01*
X0023730Y0047753D01*
X0023659Y0047798D01*
X0023590Y0047845D01*
X0023523Y0047896D01*
X0023459Y0047949D01*
X0023397Y0048006D01*
X0023339Y0048066D01*
X0023283Y0048128D01*
X0023230Y0048193D01*
X0023180Y0048260D01*
X0023133Y0048329D01*
X0023090Y0048401D01*
X0023050Y0048475D01*
X0023014Y0048550D01*
X0022981Y0048627D01*
X0022952Y0048706D01*
X0022927Y0048785D01*
X0022905Y0048866D01*
X0022888Y0048948D01*
X0022874Y0049031D01*
X0022864Y0049114D01*
X0022858Y0049197D01*
X0022856Y0049281D01*
D11*
X0019510Y0055581D02*
X0027778Y0055581D01*
X0037620Y0052825D02*
X0037620Y0049281D01*
X0049985Y0044754D02*
X0053366Y0044754D01*
X0054466Y0040811D02*
X0054466Y0038697D01*
X0053366Y0034754D02*
X0049985Y0034754D01*
X0037620Y0031959D02*
X0037620Y0028415D01*
X0027778Y0025659D02*
X0019510Y0025659D01*
X0006912Y0025659D02*
X0001400Y0025659D01*
X0001400Y0055581D01*
X0006912Y0055581D01*
D12*
X0048526Y0045266D02*
X0048526Y0034242D01*
X0054825Y0034242D01*
X0054825Y0045266D01*
X0048526Y0045266D01*
X0052699Y0027904D02*
X0052699Y0017904D01*
X0062699Y0017904D01*
X0062699Y0027904D01*
X0052699Y0027904D01*
D13*
X0056302Y0036014D03*
X0047050Y0036014D03*
X0047050Y0039754D03*
X0047050Y0043494D03*
X0056302Y0043494D03*
D14*
X0053195Y0050781D02*
X0050392Y0050781D01*
X0050392Y0054132D02*
X0053195Y0054132D01*
X0049506Y0026274D02*
X0049506Y0023470D01*
X0046156Y0023470D02*
X0046156Y0026274D01*
D15*
X0047737Y0024872D02*
X0047977Y0024872D01*
X0051794Y0052311D02*
X0051794Y0052551D01*
D16*
X0050818Y0055481D02*
X0049817Y0055481D01*
X0050818Y0056482D01*
X0050818Y0056732D01*
X0050568Y0056982D01*
X0050067Y0056982D01*
X0049817Y0056732D01*
X0049345Y0056732D02*
X0049094Y0056982D01*
X0048594Y0056982D01*
X0048344Y0056732D01*
X0048344Y0055731D01*
X0048594Y0055481D01*
X0049094Y0055481D01*
X0049345Y0055731D01*
X0044807Y0023896D02*
X0044807Y0022895D01*
X0044807Y0023396D02*
X0043305Y0023396D01*
X0043806Y0022895D01*
X0043556Y0022423D02*
X0043305Y0022173D01*
X0043305Y0021672D01*
X0043556Y0021422D01*
X0044556Y0021422D01*
X0044807Y0021672D01*
X0044807Y0022173D01*
X0044556Y0022423D01*
D17*
X0047837Y0022556D03*
X0047837Y0027156D03*
D18*
X0049478Y0052451D03*
X0054078Y0052451D03*
M02*
